<svg xmlns="http://www.w3.org/2000/svg" width="1200" height="630" viewBox="0 0 1200 630">
  <!-- Source for og.png (social share card). Rasterize with:
       rsvg-convert web/og.svg -o web/og.png   -->
  <defs>
    <linearGradient id="bg" x1="0" y1="0" x2="0" y2="1">
      <stop offset="0" stop-color="#143123"/>
      <stop offset="1" stop-color="#0e2419"/>
    </linearGradient>
  </defs>

  <rect width="1200" height="630" fill="url(#bg)"/>

  <!-- inner cream frame -->
  <rect x="40" y="40" width="1120" height="550" rx="22" fill="none"
        stroke="#3a5a48" stroke-width="2"/>

  <!-- route line with stop dots, top spine -->
  <g stroke="#e7a531" stroke-width="5" fill="#e7a531">
    <line x1="92" y1="150" x2="1108" y2="150"/>
    <circle cx="92" cy="150" r="11" fill="#f5efe2" stroke="#e7a531"/>
    <circle cx="430" cy="150" r="9"/>
    <circle cx="768" cy="150" r="9"/>
    <circle cx="1108" cy="150" r="11" fill="#f5efe2" stroke="#e7a531"/>
  </g>

  <!-- title -->
  <text x="92" y="300" font-family="Fraunces, Georgia, 'Times New Roman', serif"
        font-weight="900" font-size="116" fill="#f5efe2" letter-spacing="-2">GTFS Scorecard</text>

  <!-- subtitle -->
  <text x="96" y="364" font-family="'Public Sans', 'Helvetica Neue', Arial, sans-serif"
        font-weight="400" font-size="38" fill="#cdddcf">Transit data quality for small agencies</text>

  <!-- split-flap grade tiles -->
  <g font-family="Fraunces, Georgia, serif" font-weight="900" font-size="62" text-anchor="middle">
    <g>
      <rect x="92"  y="430" width="96" height="110" rx="10" fill="#1b3a2a"/>
      <text x="140" y="508" fill="#9fb2a2">F</text>
    </g>
    <g>
      <rect x="204" y="430" width="96" height="110" rx="10" fill="#1b3a2a"/>
      <text x="252" y="508" fill="#9fb2a2">D</text>
    </g>
    <g>
      <rect x="316" y="430" width="96" height="110" rx="10" fill="#1b3a2a"/>
      <text x="364" y="508" fill="#9fb2a2">C</text>
    </g>
    <g>
      <rect x="428" y="430" width="96" height="110" rx="10" fill="#1b3a2a"/>
      <text x="476" y="508" fill="#9fb2a2">B</text>
    </g>
    <!-- highlighted grade -->
    <g>
      <rect x="540" y="430" width="96" height="110" rx="10" fill="#e7a531"/>
      <text x="588" y="508" fill="#143123">A</text>
    </g>
  </g>

  <!-- footer right: domain + place -->
  <text x="1108" y="478" text-anchor="end"
        font-family="'Spline Sans Mono', ui-monospace, monospace"
        font-size="32" fill="#e7a531">gtfsscorecard.org</text>
  <text x="1108" y="518" text-anchor="end"
        font-family="'Public Sans', 'Helvetica Neue', Arial, sans-serif"
        font-size="24" fill="#9fb2a2">Open source · Yolo County, CA</text>
</svg>
